onset_sec,duration_sec,pitch,velocity,track,channel,id
0.3359375,3.4421875,63,33,0,0,n0
1.5052084,3.0104167,75,51,0,0,n1
1.5369792,2.95625,66,36,0,0,n2
3.2322917,1.2609375,65,36,0,0,n3
3.778125,0.71510416,63,59,0,0,n4
4.291146,3.4984374,82,72,0,0,n5
4.3020835,0.65520835,62,60,0,0,n6
4.803125,0.80364585,59,62,0,0,n7
5.4265623,2.3864584,58,53,0,0,n8
7.561458,2.4328125,70,58,0,0,n9
7.583854,2.3666666,65,28,0,0,n10
7.6114583,0.07604167,62,45,0,0,n11
7.6875,2.2630208,62,3,0,0,n12
8.23125,0.6510417,59,62,0,0,n13
8.782812,1.1677083,58,74,0,0,n14
9.291667,0.6588542,56,79,0,0,n15
9.859375,2.6614583,75,62,0,0,n16
9.875,2.66875,63,48,0,0,n17
9.875521,2.8135417,66,44,0,0,n18
9.882292,0.6713542,54,54,0,0,n19
10.452084,0.70625,53,48,0,0,n20
11.063541,0.7203125,51,49,0,0,n21
11.736459,0.9526042,49,46,0,0,n22
12.520833,1.5609375,75,64,0,0,n23
12.54375,1.5380208,63,47,0,0,n24
12.547916,1.534375,47,37,0,0,n25
12.553646,1.4192709,54,36,0,0,n26
12.56875,1.5130209,59,36,0,0,n27
13.3671875,0.71458334,66,53,0,0,n28
13.959896,1.3760417,74,72,0,0,n29
13.965104,1.3708333,62,69,0,0,n30
13.9661455,1.3697916,46,50,0,0,n31
13.968229,1.3677083,58,47,0,0,n32
13.972917,1.1109375,54,51,0,0,n33
14.500521,0.8354167,66,78,0,0,n34
15.053646,0.6067708,63,75,0,0,n35
15.076041,1.9296875,75,72,0,0,n36
15.077084,4.601042,59,56,0,0,n37
15.078125,4.5291667,47,50,0,0,n38
15.083854,2.0411458,54,54,0,0,n39
15.622916,0.6901042,66,66,0,0,n40
16.286459,0.81354165,71,64,0,0,n41
17.00573,0.6765625,75,71,0,0,n42
17.006771,0.67552084,69,59,0,0,n43
17.014584,0.66770834,57,48,0,0,n44
17.630209,0.6296875,76,70,0,0,n45
17.641666,0.55625,68,54,0,0,n46
17.680729,0.6276042,56,42,0,0,n47
18.195833,0.6921875,74,63,0,0,n48
18.197916,0.6901042,68,56,0,0,n49
18.221874,0.66614586,53,44,0,0,n50
18.826042,0.8520833,75,56,0,0,n51
18.8625,0.72760415,69,40,0,0,n52
18.888021,0.79010415,54,31,0,0,n53
19.590105,0.78229165,69,52,0,0,n54
19.59323,2.6604166,51,42,0,0,n55
19.600521,1.4171875,66,46,0,0,n56
19.607292,0.74375,47,31,0,0,n57
20.2625,4.7083335,70,60,0,0,n58
20.277082,4.69375,46,33,0,0,n59
21.017708,1.2145833,66,40,0,0,n60
21.026562,1.2057291,63,33,0,0,n61
21.044271,1.1885417,54,31,0,0,n62
22.09375,2.8770833,65,31,0,0,n63
22.09427,2.8765626,62,43,0,0,n64
22.098438,1.6489583,58,34,0,0,n65
23.747396,0.9067708,58,67,0,0,n66
24.654167,2.546875,58,71,0,0,n67
24.67552,2.7598958,54,59,0,0,n68
24.700521,2.734896,39,44,0,0,n69
25.321875,2.1135416,66,80,0,0,n70
25.909374,1.5260416,65,81,0,0,n71
26.496876,0.7046875,63,80,0,0,n72
27.201042,0.0890625,58,52,0,0,n73
27.201563,1.9729167,63,59,0,0,n74
27.204166,3.6864583,53,40,0,0,n75
27.223438,3.6671875,46,36,0,0,n76
27.290104,3.2041667,58,3,0,0,n77
28.969791,1.5041667,62,46,0,0,n78
29.827084,1.0635417,63,74,0,0,n79
30.460417,0.6666667,65,75,0,0,n80
30.473959,2.8578124,62,66,0,0,n81
30.49427,2.553125,58,52,0,0,n82
30.515625,2.8609376,34,40,0,0,n83
31.084896,0.7604167,66,80,0,0,n84
31.68698,0.6713542,68,73,0,0,n85
32.308853,1.0229167,70,69,0,0,n86
33.045834,2.05,68,52,0,0,n87
33.047398,3.6546874,58,45,0,0,n88
33.07552,3.4229167,63,46,0,0,n89
33.09948,3.6453125,39,30,0,0,n90
34.98281,0.086979166,66,34,0,0,n91
35.06979,1.4270834,66,3,0,0,n92
35.81719,0.88489586,68,64,0,0,n93
36.484898,1.2520833,70,78,0,0,n94
36.496876,1.4546875,66,60,0,0,n95
36.498436,1.453125,63,64,0,0,n96
36.509895,1.4645833,51,51,0,0,n97
37.73698,1.3541666,70,88,0,0,n98
37.746876,1.7125,65,75,0,0,n99
37.746876,1.7125,68,75,0,0,n100
37.76146,1.6979166,50,62,0,0,n101
39.091145,1.7848958,70,84,0,0,n102
39.10521,2.546875,66,73,0,0,n103
39.110416,2.540625,51,61,0,0,n104
39.114063,2.6927083,63,60,0,0,n105
40.80573,1.0010417,71,58,0,0,n106
41.641666,0.6984375,69,64,0,0,n107
41.651043,0.6880208,51,50,0,0,n108
41.651043,1.2473959,59,64,0,0,n109
41.652084,0.6869792,66,56,0,0,n110
42.266666,2.14375,68,79,0,0,n111
42.27656,0.621875,52,57,0,0,n112
42.278126,0.6203125,64,70,0,0,n113
42.804688,0.6953125,50,49,0,0,n114
42.8125,1.5979167,58,83,0,0,n115
42.8125,0.6890625,65,70,0,0,n116
43.385418,1.025,51,46,0,0,n117
43.46146,0.81458336,63,84,0,0,n118
44.22604,0.80833334,45,39,0,0,n119
44.266666,2.6494792,66,70,0,0,n120
44.275,2.641146,60,65,0,0,n121
44.276043,2.640104,63,60,0,0,n122
44.945312,3.7583334,46,48,0,0,n123
45.727604,1.1885417,57,38,0,0,n124
46.75104,1.9526042,65,46,0,0,n125
46.759895,1.94375,62,39,0,0,n126
46.778645,1.925,58,38,0,0,n127
47.814064,0.88958335,51,70,0,0,n128
48.477604,0.7578125,50,86,0,0,n129
49.077602,0.7864583,51,90,0,0,n130
49.709373,0.84947914,53,87,0,0,n131
50.415627,4.9020834,68,62,0,0,n132
50.417187,4.900521,65,57,0,0,n133
50.42552,3.3604167,59,63,0,0,n134
50.429165,3.3567708,51,66,0,0,n135
51.279686,4.063542,46,42,0,0,n136
53.572395,1.7453125,50,31,0,0,n137
53.595314,1.7223958,58,39,0,0,n138
54.477604,0.84010416,63,70,0,0,n139
55.11823,0.6458333,62,81,0,0,n140
55.70052,0.6869792,63,80,0,0,n141
56.31927,0.97552085,65,66,0,0,n142
57.116665,4.450521,80,56,0,0,n143
57.125523,3.6520834,71,53,0,0,n144
57.12969,3.740625,77,48,0,0,n145
57.139584,3.6380208,63,46,0,0,n146
58.07969,0.092708334,58,40,0,0,n147
58.172398,3.3947916,58,3,0,0,n148
60.55,1.0151042,70,42,0,0,n149
60.584896,0.9817708,62,26,0,0,n150
62.25729,0.17083333,58,52,0,0,n151
62.267708,4.8036456,51,38,0,0,n152
62.271355,4.8,54,38,0,0,n153
63.098957,4.0645833,58,27,0,0,n154
63.103645,3.9677083,42,40,0,0,n155
63.10625,0.57395834,30,33,0,0,n156
65.86562,1.2057291,63,36,0,0,n157
66.748436,4.569792,71,66,0,0,n158
66.760414,4.5578127,68,51,0,0,n159
66.785416,4.5328126,64,44,0,0,n160
67.52812,3.7901042,59,54,0,0,n161
67.53385,3.784375,56,56,0,0,n162
70.14167,1.1765625,76,33,0,0,n163
71.058334,3.0010417,63,56,0,0,n164
71.08229,2.9770834,54,44,0,0,n165
71.09062,2.96875,60,42,0,0,n166
71.76771,2.2916667,45,42,0,0,n167
73.76302,3.1541667,62,48,0,0,n168
73.77552,3.1416667,53,36,0,0,n169
73.777084,3.1614583,58,40,0,0,n170
73.79948,3.1177084,46,36,0,0,n171
76.72188,2.0697916,63,48,0,0,n172
76.75208,2.715625,39,44,0,0,n173
76.75208,2.715625,54,35,0,0,n174
77.63177,1.8359375,66,56,0,0,n175
78.24062,1.2270833,65,66,0,0,n176
78.791664,0.6796875,63,79,0,0,n177
78.79583,0.671875,51,61,0,0,n178
79.36823,0.63697916,62,74,0,0,n179
79.39271,0.63385415,53,58,0,0,n180
79.9401,0.68958336,51,50,0,0,n181
79.942184,0.6880208,63,67,0,0,n182
80.58698,0.78489584,50,42,0,0,n183
80.58802,0.78489584,65,53,0,0,n184
81.27917,3.0651042,71,63,0,0,n185
81.2875,3.128125,68,47,0,0,n186
81.29844,1.053125,63,46,0,0,n187
81.29896,1.0526042,51,46,0,0,n188
82.15833,3.188021,53,30,0,0,n189
82.1625,3.7614584,46,29,0,0,n190
82.166145,2.2958333,62,44,0,0,n191
84.23542,1.0859375,70,42,0,0,n192
85.18229,0.7427083,75,54,0,0,n193
85.19844,0.72552085,66,47,0,0,n194
85.22396,0.70208335,63,44,0,0,n195
85.87292,0.7,74,62,0,0,n196
85.88125,0.690625,65,54,0,0,n197
85.88229,0.6921875,68,59,0,0,n198
86.54375,0.81666666,75,59,0,0,n199
86.54792,0.8125,66,44,0,0,n200
86.57031,0.79010415,63,42,0,0,n201
87.27239,0.92864585,77,56,0,0,n202
87.27812,0.92291665,65,45,0,0,n203
87.302605,0.94427085,62,43,0,0,n204
88.146355,4.907292,83,60,0,0,n205
88.152084,1.35,66,42,0,0,n206
88.15417,1.3479167,75,56,0,0,n207
88.17083,1.33125,63,39,0,0,n208
89.25052,3.803125,74,50,0,0,n209
89.285416,3.7682292,68,42,0,0,n210
89.28646,3.7671876,65,40,0,0,n211
89.29427,3.759375,58,42,0,0,n212
91.916145,1.1375,82,40,0,0,n213
92.89739,4.056771,70,70,0,0,n214
92.927605,0.0953125,66,48,0,0,n215
92.93021,4.023958,63,48,0,0,n216
93.02292,3.93125,66,3,0,0,n217
93.939064,3.015104,42,60,0,0,n218
96.11354,0.840625,75,44,0,0,n219
96.85781,5.1109376,83,68,0,0,n220
96.86667,5.102083,80,53,0,0,n221
96.870834,5.0979166,76,62,0,0,n222
97.85469,4.1140623,71,59,0,0,n223
97.85573,4.113021,68,55,0,0,n224
100.45521,1.5135417,88,32,0,0,n225
101.65938,8.523958,63,48,0,0,n226
101.675,8.979167,60,40,0,0,n227
101.67604,8.519792,54,43,0,0,n228
102.77604,7.878125,45,26,0,0,n229
105.20156,5.4526043,62,44,0,0,n230
105.214066,5.440104,53,37,0,0,n231
105.2151,5.4390626,46,33,0,0,n232
110.183334,9.041667,63,42,0,0,n233
110.191666,6.6546874,58,38,0,0,n234
110.19583,11.693229,54,34,0,0,n235
110.208855,11.680208,39,31,0,0,n236
116.84635,1.3510417,58,40,0,0,n237
117.79896,4.090104,59,42,0,0,n238
118.197395,0.484375,58,44,0,0,n239
118.47448,3.4145834,57,38,0,0,n240
118.68177,3.2072916,58,50,0,0,n241
118.88125,3.0078125,60,63,0,0,n242
119.05573,2.8333333,62,61,0,0,n243
119.225,2.6640625,63,63,0,0,n244
119.41302,2.4760416,65,60,0,0,n245
119.595314,2.29375,67,66,0,0,n246
119.80885,2.0802083,68,60,0,0,n247
120.03854,1.8505208,70,68,0,0,n248
120.31458,1.5744792,72,66,0,0,n249
120.60886,1.2802083,74,60,0,0,n250
120.92031,0.96875,75,59,0,0,n251
121.33281,0.55625,77,59,0,0,n252
